<?xml version="1.0" encoding="UTF-8"?>
<svg width="71px" height="77px" viewBox="0 0 71 77" version="1.1" xmlns="http://www.w3.org/2000/svg" xmlns:xlink="http://www.w3.org/1999/xlink">
    <title>Group 38 Copy</title>
    <defs>
        <path d="M53.4641766,53.4641766 C48.7506851,58.1776681 42.2390572,61.0930233 35.0465116,61.0930233 C27.853966,61.0930233 21.3423381,58.1776681 16.6288466,53.4641766 C11.9153551,48.7506851 9,42.2390572 9,35.0465116 C9,27.853966 11.9153551,21.3423381 16.6288466,16.6288466 C21.3423381,11.9153551 27.853966,9 35.0465116,9 C42.2390572,9 48.7506851,11.9153551 53.4641766,16.6288466 C58.1776681,21.3423381 61.0930233,27.853966 61.0930233,35.0465116 C61.0930233,42.2390572 58.1776681,48.7506851 53.4641766,53.4641766 Z" id="path-1"></path>
        <path d="M53.4641766,53.7042004 C48.7506851,58.4176919 42.2390572,61.3330471 35.0465116,61.3330471 C27.853966,61.3330471 21.3423381,58.4176919 16.6288466,53.7042004 C11.9153551,48.9907089 9,42.479081 9,35.2865354 C9,28.0939899 11.9153551,21.582362 16.6288466,16.8688704 C21.3423381,12.1553789 27.853966,9.24002381 35.0465116,9.24002381 C42.2390572,9.24002381 48.7506851,12.1553789 53.4641766,16.8688704 C58.1776681,21.582362 61.0930233,28.0939899 61.0930233,35.2865354 C61.0930233,42.479081 58.1776681,48.9907089 53.4641766,53.7042004 Z" id="path-3"></path>
    </defs>
    <g id="Page-1" stroke="none" stroke-width="1" fill="none" fill-rule="evenodd">
        <g id="Group-38-Copy">
            <path d="M9.75784854,76.7291032 L7.37176447,69.5269906 L0.342568031,67.3138227 C4.11012135,63.5462693 7.87767467,59.778716 11.645228,56.0111627 L7.69108027,59.9647741 C10.7238749,63.2805053 14.3525274,66.0420821 18.4075311,68.0799981 L9.75784854,76.7291032 Z" id="Combined-Shape-Copy-43" fill="#B8B8B8"></path>
            <path d="M62.7013101,59.5289312 L59.182897,56.0111627 C62.9504503,59.778716 66.7180037,63.5462693 70.485557,67.3138227 L63.4563605,69.5269906 L61.0702765,76.7291032 C58.093436,73.7522627 55.1165955,70.7754222 52.139755,67.7985817 C56.1493474,65.6995403 59.7258903,62.8866705 62.7013101,59.5289312 Z" id="Combined-Shape-Copy-44" fill="#B8B8B8"></path>
            <circle id="External-Copy-39" fill="#4D4D4D" cx="35" cy="35" r="35"></circle>
            <path d="M4.88372093,35 C4.88372093,26.6836192 8.25460028,19.1545494 13.7045748,13.7045748 C19.1545494,8.25460029 26.6836192,4.88372093 35,4.88372093 C43.3163808,4.88372093 50.8454506,8.25460029 56.2954252,13.7045748 C61.7453997,19.1545494 65.1162791,26.6836192 65.1162791,35 C65.1162791,43.3163808 61.7453997,50.8454506 56.2954252,56.2954252 C50.8454506,61.7453997 43.3163808,65.1162791 35,65.1162791 C26.6836192,65.1162791 19.1545494,61.7453997 13.7045748,56.2954252 C8.25460028,50.8454506 4.88372093,43.3163808 4.88372093,35 Z" id="Middle-Copy-39" fill="#FFFFFF"></path>
            <mask id="mask-2" fill="white">
                <use xlink:href="#path-1"></use>
            </mask>
            <use id="Internal-Copy-39" fill="#FFD048" xlink:href="#path-1"></use>
            <mask id="mask-4" fill="white">
                <use xlink:href="#path-3"></use>
            </mask>
            <g id="Mask"></g>
            <circle id="Oval" fill="#FFFFFF" mask="url(#mask-4)" cx="41" cy="32.2400238" r="3"></circle>
            <path d="M22.9997602,32.2407671 C23.0000494,25.7503189 27.4612853,20.1111222 33.7774786,18.6172614 C40.0936719,17.1234006 46.6084149,20.1666373 49.516181,25.9692931 C52.4239471,31.7719488 50.9621812,38.8122901 45.9847602,42.9777671 L45.9847602,49.2407671 C45.9847602,49.7930518 45.5370449,50.2407671 44.9847602,50.2407671 L38.6447602,50.2407671 C40.7655579,48.535992 41.9993295,45.9618038 41.9997602,43.2407671 L41.9997602,37.1407671 C44.5147234,36.6274023 46.2324297,34.2930683 45.974441,31.7392428 C45.7164522,29.1854172 43.5665838,27.2417876 40.9997602,27.2417876 C38.4329366,27.2417876 36.2830682,29.1854172 36.0250794,31.7392428 C35.7670906,34.2930683 37.484797,36.6274023 39.9997602,37.1407671 L39.9997602,43.2407671 C39.9953515,47.1049327 36.8639258,50.2363584 32.9997602,50.2407671 L26.9997602,50.2407671 C24.7906212,50.2407671 22.9997602,48.4499061 22.9997602,46.2407671 L22.9997602,41.3587671 L20.5527602,40.1407671 C20.315487,40.0221215 20.1350807,39.8140578 20.0512469,39.5623691 C19.9674132,39.3106804 19.9870229,39.0359943 20.1057602,38.7987671 L22.9997602,33.0047671 L22.9997602,32.2407671 Z" id="Path" fill="#4A4A4A" fill-rule="nonzero"></path>
            <g id="Group-31" transform="translate(33.000000, 24.240024)">
                <g id="Group-32" transform="translate(8.000000, 8.000000) rotate(1.000000) translate(-8.000000, -8.000000) translate(1.000000, 1.000000)" fill="#FFD048">
                    <rect id="Rectangle" transform="translate(7.000000, 7.000000) rotate(21.000000) translate(-7.000000, -7.000000) " x="6" y="4.54747351e-13" width="2" height="14"></rect>
                    <rect id="Rectangle" transform="translate(7.000000, 7.000000) scale(-1, 1) rotate(24.000000) translate(-7.000000, -7.000000) " x="6" y="0" width="2" height="14"></rect>
                    <rect id="Rectangle" transform="translate(7.000000, 7.000000) scale(-1, 1) rotate(69.000000) translate(-7.000000, -7.000000) " x="6" y="4.54747351e-13" width="2" height="14"></rect>
                    <rect id="Rectangle" transform="translate(7.000000, 7.000000) scale(-1, 1) rotate(114.000000) translate(-7.000000, -7.000000) " x="6" y="9.09494702e-13" width="2" height="14"></rect>
                    <circle id="Oval" cx="7" cy="7" r="5"></circle>
                </g>
                <circle id="Oval" fill="#4A4A4A" fill-rule="nonzero" cx="8" cy="8" r="3"></circle>
            </g>
        </g>
    </g>
</svg>